<?xml version="1.0" standalone="no"?>
<!DOCTYPE svg PUBLIC "-//W3C//DTD SVG 20010904//EN"
 "http://www.w3.org/TR/2001/REC-SVG-20010904/DTD/svg10.dtd">
<svg version="1.0" xmlns="http://www.w3.org/2000/svg"
 width="426.000000pt" height="426.000000pt" viewBox="0 0 426.000000 426.000000"
 preserveAspectRatio="xMidYMid meet">
<metadata>
Created by potrace 1.14, written by Peter Selinger 2001-2017
</metadata>
<g transform="translate(0.000000,426.000000) scale(0.100000,-0.100000)"
fill="#000000" stroke="none">
<path d="M1542 4130 c-46 -10 -101 -20 -121 -23 -21 -2 -43 -7 -50 -11 -7 -5
-11 -44 -11 -110 l0 -103 -56 -37 c-31 -20 -62 -36 -70 -36 -7 0 -51 18 -99
40 -74 35 -88 39 -100 27 -24 -24 -165 -238 -165 -251 0 -6 20 -29 45 -49 24
-21 55 -52 69 -70 24 -31 25 -35 13 -101 -10 -58 -15 -70 -39 -82 -15 -8 -28
-12 -28 -8 0 4 -6 1 -14 -5 -8 -7 -22 -13 -32 -15 -11 -3 -32 -10 -49 -17 -16
-7 -33 -13 -37 -14 -5 -2 -10 -3 -12 -4 -2 0 2 -29 10 -63 7 -35 15 -81 18
-103 3 -22 8 -56 12 -75 4 -19 7 -44 8 -55 1 -19 8 -20 108 -18 l107 1 41 -59
c22 -32 40 -62 40 -66 0 -5 -19 -50 -42 -102 l-43 -93 27 -22 c14 -11 51 -37
82 -56 32 -19 66 -43 77 -53 10 -10 19 -16 19 -13 0 3 12 -6 27 -20 l27 -25
77 77 77 77 72 -14 72 -14 36 -99 37 -98 45 7 c25 3 59 8 75 10 17 3 39 6 50
8 11 3 40 8 65 12 84 12 79 5 82 122 l3 107 55 38 c59 40 70 44 98 28 41 -24
166 -70 173 -63 3 5 40 57 80 117 41 60 78 115 84 122 7 10 -9 32 -64 88 l-74
74 14 73 14 72 90 34 c50 19 94 38 99 43 6 6 5 30 -2 62 -6 29 -14 69 -16 88
-14 91 -25 151 -31 159 -3 5 -53 8 -110 6 l-106 -3 -15 32 c-9 17 -27 45 -40
63 l-24 31 47 98 c30 64 42 99 34 102 -6 2 -17 10 -25 17 -7 7 -55 42 -107 76
-52 34 -95 66 -97 71 -8 20 -34 3 -101 -65 -64 -66 -101 -90 -101 -65 0 4 -3
7 -7 6 -8 -2 -76 10 -106 18 -9 3 -15 9 -13 13 3 4 -10 45 -29 92 -40 98 -40
98 -173 69z m226 -544 c12 -3 28 -8 35 -13 6 -4 18 -8 24 -9 7 -1 31 -16 52
-34 92 -72 141 -172 135 -275 -5 -94 -14 -122 -63 -192 -143 -206 -459 -182
-573 44 -30 60 -33 75 -33 152 0 74 4 94 28 143 46 93 136 169 219 183 18 4
34 8 37 10 5 6 105 -1 139 -9z"/>
<path d="M3130 3040 c-18 -56 -38 -104 -44 -107 -5 -4 -21 -8 -35 -9 -14 -1
-45 -8 -69 -15 l-42 -12 -76 76 c-71 71 -104 96 -104 79 0 -4 -48 -40 -107
-80 -60 -39 -118 -80 -130 -89 l-22 -18 44 -93 c25 -51 45 -97 45 -102 0 -6
-16 -32 -35 -59 -19 -26 -35 -53 -35 -60 0 -14 -1 -14 -129 -15 -84 -1 -105
-4 -108 -16 -23 -103 -43 -206 -49 -255 l-6 -60 101 -38 c55 -21 103 -42 106
-47 2 -4 10 -38 16 -76 l12 -69 -78 -78 -77 -78 53 -82 c30 -45 56 -84 59 -87
3 -3 19 -25 35 -50 40 -60 42 -61 84 -40 59 30 153 70 163 70 10 0 79 -49 90
-65 4 -5 8 -6 8 -1 0 5 7 3 16 -5 11 -9 15 -29 14 -68 -1 -31 -1 -81 -1 -112
l1 -55 68 -12 c37 -6 78 -14 92 -17 14 -3 39 -8 55 -11 17 -3 47 -10 69 -15
21 -6 40 -8 42 -6 2 2 22 51 43 108 29 75 45 105 58 107 10 1 44 7 76 14 l58
11 77 -76 c43 -43 81 -77 86 -77 4 0 25 13 45 29 20 15 80 57 133 93 l97 65
-18 29 c-27 45 -71 153 -70 172 0 9 17 42 37 72 l38 55 111 3 c123 3 121 1
130 77 5 43 10 70 13 70 1 0 3 11 5 25 2 14 9 54 16 89 8 40 10 66 4 68 -6 2
-53 21 -105 42 l-95 38 -16 74 -16 74 78 80 78 80 -32 50 c-17 28 -35 52 -39
53 -5 2 -8 10 -8 17 0 7 -6 15 -13 18 -7 2 -23 24 -35 48 -13 24 -31 55 -42
69 l-18 24 -106 -48 c-90 -41 -107 -46 -120 -35 -31 28 -44 37 -74 53 l-31 16
-3 117 -3 118 -155 27 c-85 14 -160 27 -165 27 -6 1 -26 -44 -45 -99z m138
-499 c37 -11 105 -50 137 -78 24 -20 78 -98 89 -128 22 -55 27 -177 10 -227
-7 -20 -10 -38 -8 -41 2 -2 -2 -10 -11 -17 -8 -7 -15 -19 -15 -26 0 -8 -5 -14
-11 -14 -5 0 -8 -4 -5 -8 8 -14 -102 -106 -152 -126 -134 -53 -267 -31 -374
64 -152 134 -159 368 -14 512 92 92 231 127 354 89z"/>
<path d="M1164 2412 c-18 -3 -23 -18 -43 -125 -13 -67 -25 -129 -27 -138 -4
-14 -145 -79 -173 -79 -7 0 -62 34 -123 75 l-111 76 -149 -149 -149 -148 29
-40 c15 -21 51 -73 80 -115 l52 -76 -21 -49 c-11 -27 -25 -60 -31 -74 -20 -48
-25 -55 -44 -56 -11 -1 -26 -4 -34 -7 -8 -4 -58 -14 -110 -22 -52 -9 -98 -19
-102 -21 -4 -3 -8 -97 -8 -209 l0 -203 24 -6 c12 -3 41 -8 62 -11 21 -3 46 -9
54 -12 8 -3 26 -7 40 -9 96 -11 94 -10 139 -115 l33 -77 -49 -68 c-27 -38 -56
-80 -66 -94 -9 -14 -24 -34 -32 -46 -17 -23 -23 -16 193 -228 l91 -89 115 78
115 78 58 -26 c32 -14 70 -29 85 -32 23 -6 29 -15 38 -58 12 -62 40 -219 40
-229 0 -5 96 -8 213 -8 l213 0 24 140 25 141 87 35 87 35 107 -72 c59 -39 113
-72 120 -73 7 -1 78 64 158 143 l146 144 -34 46 c-76 106 -126 179 -126 184 0
3 10 27 22 54 24 54 22 48 32 85 9 32 27 41 111 52 11 2 31 6 45 9 14 4 51 11
83 17 l57 12 -2 206 -3 206 -35 8 c-19 5 -53 11 -74 14 -22 3 -67 11 -100 18
-66 13 -63 10 -112 123 l-26 62 38 58 c21 32 57 84 80 116 l43 57 -146 145
c-79 80 -150 145 -157 145 -6 0 -57 -31 -113 -70 -56 -38 -108 -70 -115 -70
-7 0 -49 15 -93 34 l-80 33 -24 137 -24 136 -86 0 c-47 0 -133 2 -191 3 -58 1
-114 1 -126 -1z m336 -737 c121 -43 233 -156 275 -280 20 -57 25 -175 11 -240
-14 -64 -70 -161 -125 -213 -139 -134 -328 -164 -501 -80 -101 49 -206 167
-225 254 -2 11 -8 33 -13 50 -11 35 -9 152 2 199 12 48 63 147 94 180 62 69
137 116 224 140 65 18 194 13 258 -10z"/>
</g>
</svg>
